Coordinates
version=1
nRows=9
nColumns=36
inDegrees=yes

Units are S.I. units (second, meters, Newtons, ...)
If the header above contains a line with 'inDegrees', this indicates whether rotational values are in degrees (yes) or radians (no).

endheader
time	pelvis_tilt	pelvis_list	pelvis_rotation	pelvis_tx	pelvis_ty	pelvis_tz	hip_flexion_r	hip_adduction_r	hip_rotation_r	knee_angle_r	knee_angle_r_beta	ankle_angle_r	subtalar_angle_r	mtp_angle_r	hip_flexion_l	hip_adduction_l	hip_rotation_l	knee_angle_l	knee_angle_l_beta	ankle_angle_l	subtalar_angle_l	mtp_angle_l	lumbar_extension	lumbar_bending	lumbar_rotation	arm_flex_r	arm_add_r	arm_rot_r	elbow_flex_r	pro_sup_r	arm_flex_l	arm_add_l	arm_rot_l	elbow_flex_l	pro_sup_l
      3.95000000	      0.37638768	     -0.45486205	      5.26061684	      0.49866212	      0.84930994	      0.40806709	      4.19143635	      0.86133747	      0.86317680	      7.98075257	      0.13929041	     15.06988007	     -5.04658970	     -7.49999987	      0.38129826	      3.31318289	     -7.05012058	      0.52601505	      0.00918069	      7.96287094	     -0.90964020	     -7.49999987	      5.30502475	      1.63136685	      7.74503820	     33.45050654	      4.42145266	     59.58448630	    126.19455422	     87.92707605	     28.17253585	      6.60311048	     68.16325145	    119.24106084	     80.87572101
      3.96666670	      0.45633622	     -0.57506040	      5.40416694	      0.49874453	      0.84690851	      0.40809598	      3.84981925	      1.02762377	      0.81143336	      7.98583487	      0.13937911	     15.12297861	     -5.09778183	     -7.49999987	      0.07782636	      3.08016431	     -6.94921438	      0.55299620	      0.00965160	      8.18977564	     -0.81628175	     -7.49999987	      5.50364223	      1.71402128	      7.78215357	     33.00936272	      4.57670524	     59.78767870	    126.44128895	     88.16807782	     27.83049312	      6.35300977	     68.52464917	    119.70156906	     81.07038194
      3.98333330	      0.55730725	     -0.64905736	      5.46251142	      0.49904884	      0.84491419	      0.40776328	      3.49696668	      1.18279415	      0.87003831	      7.90985479	      0.13805301	     15.30007644	     -5.14207807	     -7.49999987	     -0.18084505	      2.89709086	     -6.85794726	      0.58333036	      0.01018104	      8.31395341	     -0.77848917	     -7.49999987	      5.79137208	      1.73748955	      7.81951517	     32.61449257	      4.72521721	     59.91857649	    126.56995578	     88.27312212	     27.61908488	      6.11864880	     68.63882751	    119.83571168	     81.14701768
      4.00000000	      0.69513054	     -0.80110161	      5.50969349	      0.50209867	      0.85081145	      0.40435953	      2.97176569	      1.34594438	      0.88116062	      7.68261542	      0.13408693	     15.29368183	     -5.13216888	     -7.49999987	     -0.59779845	      2.71817295	     -6.83242408	      0.59525790	      0.01038921	      8.57027186	     -0.59539673	     -7.49999987	      6.04067085	      1.90591142	      7.65062570	     31.69530554	      4.86593862	     59.97705648	    126.90352064	     88.62552102	     26.51469967	      5.94162685	     68.79391816	    120.36926067	     81.39722189
      4.01666670	      0.72697510	     -0.85061974	      5.48113507	      0.49738344	      0.84974173	      0.40203263	      2.83192970	      1.32897225	      0.91067741	      7.71202254	      0.13460019	     15.47367054	     -5.22312564	     -7.49999987	     -0.76258428	      2.74586458	     -6.77708377	      0.60922137	      0.01063292	      8.90849622	     -0.66132329	     -7.49999987	      6.21262936	      2.07242440	      7.32619195	     31.46835961	      4.95311314	     60.15721561	    127.08597325	     88.75699586	     26.53333236	      5.99674630	     68.59534906	    119.96926479	     81.46133478
      4.03333330	      0.72354745	     -0.92259792	      5.56969731	      0.49640770	      0.84944928	      0.40200347	      2.78731892	      1.32490363	      0.94401168	      7.63731543	      0.13329630	     15.42425939	     -5.33966635	     -7.49999987	     -0.83075571	      2.73723872	     -6.67858069	      0.60606335	      0.01057780	      9.16712321	     -0.45505088	     -7.49999987	      6.38742509	      2.19518677	      7.02413005	     31.68240429	      4.71114558	     59.97250033	    127.18955203	     92.98539141	     26.63214237	      6.33477204	     67.78481585	    118.98971426	     84.11158791
      4.05000000	      0.50194297	     -0.96844398	      5.54914567	      0.48561338	      0.84725238	      0.39729493	      3.15432015	      1.18709508	      0.91553214	      7.49815551	      0.13086750	     15.52290180	     -5.43688740	     -7.49999987	     -0.43906246	      2.92823046	     -6.44505424	      0.58856047	      0.01027232	      9.39884436	     -0.62171504	     -7.49999987	      6.37766836	      2.42356466	      6.54218582	     32.27790990	      4.35231102	     59.93457711	    127.26463310	     92.96943358	     27.80182591	      7.00915527	     67.26481161	    117.72420862	     84.10849990
      4.06666670	      0.50279611	     -1.04094073	      5.48473658	      0.49117236	      0.84605509	      0.39982868	      3.22854348	      1.18064411	      1.11704682	      7.31746207	      0.12771381	     15.43921194	     -5.40808655	     -7.49999987	     -0.35528449	      2.95930001	     -6.37039437	      0.56173612	      0.00980414	      9.43942112	     -0.73427364	     -7.49999987	      6.38349782	      2.64099777	      6.79146165	     32.67278098	      3.98718272	     59.41795830	    126.98295375	     92.91927226	     28.12995641	      7.37261602	     66.71984732	    116.85584636	     84.09736405
      4.08333330	      0.31618231	     -1.06048509	      5.27552546	      0.48573924	      0.84724979	      0.39765502	      3.59029625	      1.06807950	      1.13099470	      7.22820869	      0.12615604	     15.44055477	     -5.34986353	     -7.49999987	      0.01246465	      3.11749710	     -6.33526168	      0.54002565	      0.00942523	      9.44086536	     -0.84776036	     -7.49999987	      6.33940121	      2.88689298	      7.09785030	     33.14541141	      3.54658316	     59.11954570	    126.84130501	     92.88038215	     28.10753539	      7.58194777	     66.57654510	    116.61620398	     84.10290353
